<svg width="48" height="48" viewBox="0 0 48 48" fill="none" xmlns="http://www.w3.org/2000/svg">
<mask id="mask0_644_31" style="mask-type:alpha" maskUnits="userSpaceOnUse" x="0" y="0" width="48" height="48">
<rect width="48" height="48" fill="#D9D9D9"/>
</mask>
<g mask="url(#mask0_644_31)">
<path d="M32.25 6C35.5833 6 38.375 7.23333 40.625 9.7C42.875 12.1667 44 15.1 44 18.5C44 19.1 43.9667 19.6917 43.9 20.275C43.8333 20.8583 43.7167 21.4333 43.55 22H31.05L27.65 16.9C27.4833 16.6333 27.25 16.4167 26.95 16.25C26.65 16.0833 26.3333 16 26 16C25.5667 16 25.175 16.1333 24.825 16.4C24.475 16.6667 24.2333 17 24.1 17.4L21.4 25.5L19.65 22.9C19.4833 22.6333 19.25 22.4167 18.95 22.25C18.65 22.0833 18.3333 22 18 22H4.45C4.28333 21.4333 4.16667 20.8583 4.1 20.275C4.03333 19.6917 4 19.1167 4 18.55C4 15.1167 5.11667 12.1667 7.35 9.7C9.58333 7.23333 12.3667 6 15.7 6C17.3 6 18.8083 6.31667 20.225 6.95C21.6417 7.58333 22.9 8.46667 24 9.6C25.0667 8.46667 26.3083 7.58333 27.725 6.95C29.1417 6.31667 30.65 6 32.25 6ZM24 42C23.4 42 22.825 41.8917 22.275 41.675C21.725 41.4583 21.2333 41.1333 20.8 40.7L7.4 27.25C7.2 27.05 7.01667 26.85 6.85 26.65C6.68333 26.45 6.51667 26.2333 6.35 26H16.9L20.3 31.1C20.4667 31.3667 20.7 31.5833 21 31.75C21.3 31.9167 21.6167 32 21.95 32C22.3833 32 22.7833 31.8667 23.15 31.6C23.5167 31.3333 23.7667 31 23.9 30.6L26.6 22.5L28.3 25.1C28.5 25.3667 28.75 25.5833 29.05 25.75C29.35 25.9167 29.6667 26 30 26H41.6L40.6 27.2L27.15 40.7C26.7167 41.1333 26.2333 41.4583 25.7 41.675C25.1667 41.8917 24.6 42 24 42Z" fill="#0099DF"/>
</g>
</svg>
