<svg width="104" height="208" viewBox="0 0 104 208" fill="none" xmlns="http://www.w3.org/2000/svg">
<path d="M44.8897 101.527C43.1437 105.332 38.6573 106.984 34.869 105.218C31.0807 103.452 25.3012 101.027 27.0472 97.2221C28.7932 93.4174 37.4036 89.6735 41.1919 91.4398C44.9801 93.2061 46.6357 97.7223 44.8897 101.527Z" fill="#E8C8B5"/>
<path d="M20.4017 90.1094C18.6557 93.9141 20.3113 98.4303 24.0995 100.197C27.8878 101.963 33.4633 104.832 35.2093 101.028C36.9553 97.2231 34.2107 88.1849 30.4224 86.4186C26.6341 84.6523 22.1477 86.3047 20.4017 90.1094Z" fill="#E8C8B5"/>
<path d="M30.0094 107.282C28.4247 107.523 26.8466 106.787 26.0028 105.413L21.2714 97.7118C19.1912 94.3258 22.7418 90.3057 26.3335 91.9803L39.9514 98.3297C43.5431 100.004 42.8027 105.335 38.8958 105.929L30.0094 107.282Z" fill="#E8C8B5"/>
<ellipse cx="3.60902" cy="5.10378" rx="3.60902" ry="5.10378" transform="matrix(-0.906326 -0.422578 0.417087 -0.908867 42.3306 117.964)" fill="#E8C8B5"/>
<ellipse cx="3.60902" cy="5.10378" rx="3.60902" ry="5.10378" transform="matrix(-0.906326 -0.422578 0.417087 -0.908867 16.4573 105.9)" fill="#E8C8B5"/>
<ellipse cx="4.73684" cy="6.37972" rx="4.73684" ry="6.37972" transform="matrix(-0.906326 -0.422578 0.417087 -0.908867 31.7524 123.449)" fill="#E8C8B5"/>
<ellipse cx="4.73684" cy="6.37972" rx="4.73684" ry="6.37972" transform="matrix(-0.906326 -0.422578 0.417087 -0.908867 21.22 118.538)" fill="#E8C8B5"/>
<path d="M83.92 170.171C85.5268 174.036 83.6927 178.451 79.8234 180.032C75.9541 181.613 70.2491 184.209 68.6423 180.343C67.0355 176.478 70.1354 167.615 74.0046 166.034C77.8739 164.453 82.3132 166.305 83.92 170.171Z" fill="#E8C8B5"/>
<path d="M58.9086 180.39C60.5154 184.256 64.9546 186.108 68.8239 184.527C72.6932 182.946 78.586 180.802 76.9792 176.937C75.3724 173.071 66.8744 168.948 63.0051 170.529C59.1358 172.109 57.3017 176.525 58.9086 180.39Z" fill="#E8C8B5"/>
<path d="M78.0376 185.001C77.1384 186.328 75.5265 186.986 73.9454 186.673L65.079 184.915C61.1809 184.142 60.6417 178.806 64.3101 177.307L78.2193 171.624C81.8877 170.125 85.2974 174.288 83.0804 177.56L78.0376 185.001Z" fill="#E8C8B5"/>
<ellipse cx="3.60902" cy="5.10378" rx="3.60902" ry="5.10378" transform="matrix(-0.925708 0.37824 -0.383834 -0.923402 94.2461 183.212)" fill="#E8C8B5"/>
<ellipse cx="3.60902" cy="5.10378" rx="3.60902" ry="5.10378" transform="matrix(-0.925708 0.37824 -0.383834 -0.923402 67.8196 194.01)" fill="#E8C8B5"/>
<ellipse cx="4.73684" cy="6.37972" rx="4.73684" ry="6.37972" transform="matrix(-0.925708 0.37824 -0.383834 -0.923402 91.0879 194.701)" fill="#E8C8B5"/>
<ellipse cx="4.73684" cy="6.37972" rx="4.73684" ry="6.37972" transform="matrix(-0.925708 0.37824 -0.383834 -0.923402 80.3301 199.097)" fill="#E8C8B5"/>
<path d="M83.92 11.2672C85.5268 15.1328 83.6927 19.5481 79.8234 21.129C75.9541 22.71 70.2491 25.3054 68.6423 21.4398C67.0355 17.5743 70.1354 8.71164 74.0046 7.13067C77.8739 5.5497 82.3132 7.40171 83.92 11.2672Z" fill="#E8C8B5"/>
<path d="M58.9086 21.487C60.5154 25.3525 64.9546 27.2045 68.8239 25.6236C72.6932 24.0426 78.586 21.8991 76.9792 18.0336C75.3724 14.1681 66.8744 10.0442 63.0051 11.6252C59.1358 13.2062 57.3017 17.6214 58.9086 21.487Z" fill="#E8C8B5"/>
<path d="M78.0376 26.0975C77.1384 27.4244 75.5265 28.083 73.9454 27.7696L65.079 26.0118C61.1809 25.239 60.6417 19.9026 64.3101 18.4037L78.2193 12.7205C81.8877 11.2215 85.2974 15.3851 83.0804 18.6565L78.0376 26.0975Z" fill="#E8C8B5"/>
<ellipse cx="3.60902" cy="5.10378" rx="3.60902" ry="5.10378" transform="matrix(-0.925708 0.37824 -0.383834 -0.923402 94.2461 24.3086)" fill="#E8C8B5"/>
<ellipse cx="3.60902" cy="5.10378" rx="3.60902" ry="5.10378" transform="matrix(-0.925708 0.37824 -0.383834 -0.923402 67.8196 35.1064)" fill="#E8C8B5"/>
<ellipse cx="4.73684" cy="6.37972" rx="4.73684" ry="6.37972" transform="matrix(-0.925708 0.37824 -0.383834 -0.923402 91.0879 35.7979)" fill="#E8C8B5"/>
<ellipse cx="4.73684" cy="6.37972" rx="4.73684" ry="6.37972" transform="matrix(-0.925708 0.37824 -0.383834 -0.923402 80.3301 40.1934)" fill="#E8C8B5"/>
</svg>
