<svg width="293" height="79" viewBox="0 0 293 79" fill="none" xmlns="http://www.w3.org/2000/svg">
<path d="M48.0029 4L3.03015 44.8714" stroke="white" stroke-width="6" stroke-linecap="round" stroke-linejoin="round"/>
<path d="M22 76L22.4237 46.4611" stroke="white" stroke-width="6" stroke-linecap="round" stroke-linejoin="round"/>
<line x1="3" y1="45.5098" x2="22.454" y2="45.5098" stroke="white" stroke-width="6" stroke-linecap="round"/>
<line x1="22.6548" y1="76" x2="62.1083" y2="76" stroke="white" stroke-width="6" stroke-linecap="round"/>
<path d="M35.3912 39.7898C38.3491 36.8139 43.1655 36.8346 46.1488 39.836C49.1321 42.8374 53.7761 47.1617 50.8182 50.1376C47.8603 53.1135 38.4205 53.614 35.4372 50.6126C32.4539 47.6112 32.4333 42.7657 35.3912 39.7898Z" fill="white"/>
<path d="M54.6759 59.1914C57.6338 56.2155 57.6132 51.37 54.6299 48.3686C51.6466 45.3672 47.3484 40.6949 44.3905 43.6708C41.4325 46.6467 40.935 56.1438 43.9183 59.1452C46.9016 62.1466 51.7179 62.1673 54.6759 59.1914Z" fill="white"/>
<path d="M51.5098 39.61C53.0658 39.9348 54.2816 41.158 54.6044 42.7234L56.46 51.7214C57.2645 55.6228 52.5359 58.1909 49.7354 55.3734L38.9361 44.5086C36.1356 41.6911 38.6882 36.9337 42.5661 37.7432L51.5098 39.61Z" fill="white"/>
<ellipse cx="3.65397" cy="5.11555" rx="3.65397" ry="5.11555" transform="matrix(0.704965 0.709243 -0.704965 0.709243 43.4482 25.1787)" fill="white"/>
<ellipse cx="3.65397" cy="5.11555" rx="3.65397" ry="5.11555" transform="matrix(0.704965 0.709243 -0.704965 0.709243 63.8237 45.6777)" fill="white"/>
<ellipse cx="4.79583" cy="6.39444" rx="4.79583" ry="6.39444" transform="matrix(0.704964 0.709243 -0.704964 0.709243 55.3486 23.7275)" fill="white"/>
<ellipse cx="4.79583" cy="6.39444" rx="4.79583" ry="6.39444" transform="matrix(0.704965 0.709243 -0.704965 0.709243 63.6436 32.0723)" fill="white"/>
<path d="M120.96 15.94V39.46H124.76V52.82H118.92V44.5H101.04V52.82H95.2V39.46H97.4C98.1467 37.9667 98.8667 36.3933 99.56 34.74C100.253 33.0867 100.893 31.3133 101.48 29.42C102.093 27.5267 102.64 25.4733 103.12 23.26C103.6 21.02 104 18.58 104.32 15.94H120.96ZM109.12 20.98C108.933 22.3667 108.667 23.8467 108.32 25.42C107.973 26.9667 107.56 28.5533 107.08 30.18C106.627 31.8067 106.12 33.4067 105.56 34.98C105 36.5533 104.4 38.0467 103.76 39.46H114.92V20.98H109.12ZM147.707 33.54C147.707 35.3533 147.454 36.9667 146.947 38.38C146.467 39.7933 145.76 40.9933 144.827 41.98C143.92 42.94 142.814 43.6733 141.507 44.18C140.2 44.66 138.72 44.9 137.067 44.9C135.547 44.9 134.134 44.66 132.827 44.18C131.547 43.6733 130.44 42.94 129.507 41.98C128.574 40.9933 127.84 39.7933 127.307 38.38C126.8 36.9667 126.547 35.3533 126.547 33.54C126.547 31.1133 126.974 29.0733 127.827 27.42C128.68 25.74 129.907 24.46 131.507 23.58C133.107 22.7 135 22.26 137.187 22.26C139.24 22.26 141.054 22.7 142.627 23.58C144.2 24.46 145.44 25.74 146.347 27.42C147.254 29.0733 147.707 31.1133 147.707 33.54ZM132.627 33.54C132.627 34.98 132.774 36.1933 133.067 37.18C133.387 38.14 133.88 38.8733 134.547 39.38C135.214 39.86 136.08 40.1 137.147 40.1C138.214 40.1 139.067 39.86 139.707 39.38C140.374 38.8733 140.854 38.14 141.147 37.18C141.467 36.1933 141.627 34.98 141.627 33.54C141.627 32.1 141.467 30.9 141.147 29.94C140.854 28.98 140.374 28.26 139.707 27.78C139.04 27.3 138.174 27.06 137.107 27.06C135.534 27.06 134.387 27.6067 133.667 28.7C132.974 29.7667 132.627 31.38 132.627 33.54ZM179.353 22.66V44.5H173.793V33.78C173.793 32.7133 173.806 31.6733 173.833 30.66C173.886 29.6467 173.953 28.7133 174.033 27.86H173.913L167.873 44.5H163.393L157.273 27.82H157.113C157.219 28.7 157.286 29.6467 157.313 30.66C157.366 31.6467 157.393 32.74 157.393 33.94V44.5H151.833V22.66H160.273L165.713 37.46L171.233 22.66H179.353ZM193.742 22.22C196.676 22.22 198.916 22.86 200.462 24.14C202.036 25.3933 202.823 27.3267 202.823 29.94V44.5H198.662L197.502 41.54H197.342C196.729 42.3133 196.089 42.9533 195.422 43.46C194.782 43.9667 194.036 44.3267 193.182 44.54C192.356 44.78 191.329 44.9 190.102 44.9C188.822 44.9 187.662 44.66 186.622 44.18C185.609 43.6733 184.809 42.9133 184.222 41.9C183.636 40.86 183.342 39.5533 183.342 37.98C183.342 35.66 184.156 33.9533 185.782 32.86C187.409 31.74 189.849 31.1267 193.102 31.02L196.902 30.9V29.94C196.902 28.7933 196.596 27.9533 195.982 27.42C195.396 26.8867 194.569 26.62 193.502 26.62C192.436 26.62 191.396 26.78 190.382 27.1C189.369 27.3933 188.356 27.7667 187.342 28.22L185.382 24.18C186.556 23.5667 187.849 23.0867 189.262 22.74C190.702 22.3933 192.196 22.22 193.742 22.22ZM194.582 34.46C192.662 34.5133 191.329 34.86 190.582 35.5C189.836 36.14 189.462 36.98 189.462 38.02C189.462 38.9267 189.729 39.58 190.262 39.98C190.796 40.3533 191.489 40.54 192.342 40.54C193.622 40.54 194.702 40.1667 195.582 39.42C196.462 38.6467 196.902 37.5667 196.902 36.18V34.38L194.582 34.46Z" fill="white"/>
<path d="M96.512 71.5C96.38 71.5 96.272 71.458 96.188 71.374C96.104 71.29 96.062 71.182 96.062 71.05V62.59C96.062 62.458 96.104 62.35 96.188 62.266C96.272 62.182 96.38 62.14 96.512 62.14H104.756C104.888 62.14 104.996 62.182 105.08 62.266C105.164 62.35 105.206 62.458 105.206 62.59V71.05C105.206 71.182 105.164 71.29 105.08 71.374C104.996 71.458 104.888 71.5 104.756 71.5H102.632C102.512 71.5 102.404 71.458 102.308 71.374C102.224 71.29 102.182 71.182 102.182 71.05V64.498H99.086V71.05C99.086 71.182 99.038 71.29 98.942 71.374C98.858 71.458 98.756 71.5 98.636 71.5H96.512ZM107.85 74.92C107.718 74.92 107.61 74.878 107.526 74.794C107.442 74.71 107.4 74.602 107.4 74.47V62.59C107.4 62.458 107.442 62.35 107.526 62.266C107.61 62.182 107.718 62.14 107.85 62.14H109.884C110.004 62.14 110.106 62.182 110.19 62.266C110.286 62.35 110.334 62.458 110.334 62.59V63.256C110.61 62.884 110.976 62.578 111.432 62.338C111.888 62.086 112.452 61.96 113.124 61.96C113.724 61.96 114.252 62.056 114.708 62.248C115.164 62.428 115.554 62.698 115.878 63.058C116.202 63.418 116.454 63.856 116.634 64.372C116.826 64.888 116.934 65.482 116.958 66.154C116.97 66.394 116.976 66.616 116.976 66.82C116.976 67.024 116.97 67.246 116.958 67.486C116.934 68.134 116.832 68.716 116.652 69.232C116.472 69.748 116.22 70.186 115.896 70.546C115.572 70.906 115.176 71.188 114.708 71.392C114.252 71.584 113.724 71.68 113.124 71.68C112.536 71.68 112.02 71.578 111.576 71.374C111.144 71.158 110.784 70.858 110.496 70.474V74.47C110.496 74.602 110.454 74.71 110.37 74.794C110.286 74.878 110.178 74.92 110.046 74.92H107.85ZM112.152 69.268C112.56 69.268 112.878 69.184 113.106 69.016C113.334 68.848 113.496 68.62 113.592 68.332C113.7 68.044 113.766 67.726 113.79 67.378C113.814 67.006 113.814 66.634 113.79 66.262C113.766 65.914 113.7 65.596 113.592 65.308C113.496 65.02 113.334 64.792 113.106 64.624C112.878 64.456 112.56 64.372 112.152 64.372C111.756 64.372 111.438 64.462 111.198 64.642C110.958 64.81 110.784 65.032 110.676 65.308C110.568 65.584 110.508 65.884 110.496 66.208C110.484 66.436 110.478 66.658 110.478 66.874C110.478 67.09 110.484 67.318 110.496 67.558C110.508 67.858 110.574 68.14 110.694 68.404C110.814 68.656 110.994 68.866 111.234 69.034C111.474 69.19 111.78 69.268 112.152 69.268ZM119.187 71.5C119.067 71.5 118.965 71.458 118.881 71.374C118.797 71.29 118.755 71.188 118.755 71.068V62.59C118.755 62.458 118.797 62.35 118.881 62.266C118.965 62.182 119.073 62.14 119.205 62.14H121.329C121.449 62.14 121.551 62.182 121.635 62.266C121.731 62.35 121.779 62.458 121.779 62.59V69.16L120.969 68.764L125.415 62.428C125.475 62.344 125.547 62.278 125.631 62.23C125.715 62.17 125.811 62.14 125.919 62.14H127.845C127.965 62.14 128.067 62.182 128.151 62.266C128.235 62.35 128.277 62.452 128.277 62.572V71.05C128.277 71.182 128.235 71.29 128.151 71.374C128.067 71.458 127.959 71.5 127.827 71.5H125.703C125.571 71.5 125.463 71.458 125.379 71.374C125.295 71.29 125.253 71.182 125.253 71.05V64.678L126.081 64.84L121.599 71.212C121.551 71.296 121.485 71.368 121.401 71.428C121.317 71.476 121.215 71.5 121.095 71.5H119.187ZM136.282 67.936H133.258V71.05C133.258 71.182 133.21 71.29 133.114 71.374C133.03 71.458 132.928 71.5 132.808 71.5H130.684C130.552 71.5 130.444 71.458 130.36 71.374C130.276 71.29 130.234 71.182 130.234 71.05V62.59C130.234 62.458 130.276 62.35 130.36 62.266C130.444 62.182 130.552 62.14 130.684 62.14H132.808C132.928 62.14 133.03 62.182 133.114 62.266C133.21 62.35 133.258 62.458 133.258 62.59V65.578H136.282V67.936ZM139.36 71.68C138.352 71.68 137.5 71.518 136.804 71.194C136.12 70.87 135.592 70.408 135.22 69.808C134.86 69.196 134.656 68.47 134.608 67.63C134.596 67.39 134.59 67.12 134.59 66.82C134.59 66.508 134.596 66.238 134.608 66.01C134.656 65.158 134.872 64.432 135.256 63.832C135.64 63.232 136.18 62.77 136.876 62.446C137.572 62.122 138.4 61.96 139.36 61.96C140.344 61.96 141.178 62.122 141.862 62.446C142.558 62.77 143.098 63.232 143.482 63.832C143.866 64.432 144.082 65.158 144.13 66.01C144.154 66.238 144.166 66.508 144.166 66.82C144.166 67.12 144.154 67.39 144.13 67.63C144.082 68.47 143.872 69.196 143.5 69.808C143.14 70.408 142.612 70.87 141.916 71.194C141.232 71.518 140.38 71.68 139.36 71.68ZM139.36 69.484C139.9 69.484 140.296 69.322 140.548 68.998C140.8 68.674 140.938 68.188 140.962 67.54C140.974 67.36 140.98 67.12 140.98 66.82C140.98 66.52 140.974 66.28 140.962 66.1C140.938 65.464 140.8 64.984 140.548 64.66C140.296 64.324 139.9 64.156 139.36 64.156C138.844 64.156 138.454 64.324 138.19 64.66C137.938 64.984 137.8 65.464 137.776 66.1C137.764 66.28 137.758 66.52 137.758 66.82C137.758 67.12 137.764 67.36 137.776 67.54C137.8 68.188 137.938 68.674 138.19 68.998C138.454 69.322 138.844 69.484 139.36 69.484ZM148.757 71.5C148.637 71.5 148.529 71.458 148.433 71.374C148.349 71.29 148.307 71.182 148.307 71.05V64.498H145.571C145.451 64.498 145.343 64.456 145.247 64.372C145.163 64.288 145.121 64.18 145.121 64.048V62.59C145.121 62.458 145.163 62.35 145.247 62.266C145.343 62.182 145.451 62.14 145.571 62.14H154.031C154.151 62.14 154.253 62.182 154.337 62.266C154.433 62.35 154.481 62.458 154.481 62.59V64.048C154.481 64.18 154.433 64.288 154.337 64.372C154.253 64.456 154.151 64.498 154.031 64.498H151.295V71.05C151.295 71.182 151.253 71.29 151.169 71.374C151.085 71.458 150.977 71.5 150.845 71.5H148.757ZM159.427 73.48C159.307 73.48 159.199 73.438 159.103 73.354C159.019 73.27 158.977 73.162 158.977 73.03V69.592C158.977 69.46 159.019 69.352 159.103 69.268C159.199 69.184 159.307 69.142 159.427 69.142H159.607C159.919 69.142 160.159 68.986 160.327 68.674C160.507 68.362 160.627 67.912 160.687 67.324C160.759 66.724 160.795 65.992 160.795 65.128V62.59C160.795 62.458 160.837 62.35 160.921 62.266C161.017 62.182 161.125 62.14 161.245 62.14H168.319C168.451 62.14 168.559 62.182 168.643 62.266C168.727 62.35 168.769 62.458 168.769 62.59V69.124H169.543C169.675 69.124 169.783 69.172 169.867 69.268C169.951 69.352 169.993 69.454 169.993 69.574V73.03C169.993 73.162 169.951 73.27 169.867 73.354C169.783 73.438 169.675 73.48 169.543 73.48H167.419C167.287 73.48 167.179 73.438 167.095 73.354C167.011 73.27 166.969 73.162 166.969 73.03V71.5H162.019V73.03C162.019 73.162 161.971 73.27 161.875 73.354C161.791 73.438 161.683 73.48 161.551 73.48H159.427ZM163.045 69.142L165.745 69.124V64.498H163.693V65.452C163.693 66.352 163.633 67.108 163.513 67.72C163.405 68.32 163.249 68.794 163.045 69.142ZM171.275 71.5C171.155 71.5 171.047 71.458 170.951 71.374C170.867 71.278 170.825 71.17 170.825 71.05V69.466C170.825 69.202 170.969 69.052 171.257 69.016C171.605 68.98 171.869 68.818 172.049 68.53C172.229 68.242 172.355 67.816 172.427 67.252C172.499 66.688 172.535 65.98 172.535 65.128V62.59C172.535 62.458 172.577 62.35 172.661 62.266C172.757 62.182 172.865 62.14 172.985 62.14H180.041C180.173 62.14 180.281 62.182 180.365 62.266C180.449 62.35 180.491 62.458 180.491 62.59V71.05C180.491 71.182 180.449 71.29 180.365 71.374C180.281 71.458 180.173 71.5 180.041 71.5H177.917C177.797 71.5 177.689 71.458 177.593 71.374C177.509 71.29 177.467 71.182 177.467 71.05V64.498H175.415V65.452C175.415 66.604 175.355 67.57 175.235 68.35C175.115 69.13 174.899 69.748 174.587 70.204C174.275 70.66 173.849 70.99 173.309 71.194C172.769 71.398 172.091 71.5 171.275 71.5ZM188.717 71.5C188.585 71.5 188.477 71.458 188.393 71.374C188.309 71.29 188.267 71.182 188.267 71.05V68.494H186.755V68.404C185.483 68.404 184.511 68.128 183.839 67.576C183.167 67.012 182.831 66.25 182.831 65.29C182.831 64.258 183.167 63.478 183.839 62.95C184.511 62.41 185.447 62.14 186.647 62.14H190.913C191.045 62.14 191.153 62.182 191.237 62.266C191.321 62.35 191.363 62.458 191.363 62.59V71.05C191.363 71.182 191.321 71.29 191.237 71.374C191.153 71.458 191.045 71.5 190.913 71.5H188.717ZM182.903 71.5C182.783 71.5 182.687 71.464 182.615 71.392C182.543 71.32 182.507 71.236 182.507 71.14C182.507 71.104 182.513 71.068 182.525 71.032C182.549 70.984 182.573 70.936 182.597 70.888L184.523 67.72L187.151 68.17L185.477 71.23C185.429 71.302 185.369 71.368 185.297 71.428C185.225 71.476 185.141 71.5 185.045 71.5H182.903ZM186.755 66.424H188.321V64.21H186.827C186.383 64.21 186.053 64.294 185.837 64.462C185.633 64.63 185.531 64.906 185.531 65.29C185.531 65.626 185.627 65.902 185.819 66.118C186.023 66.322 186.335 66.424 186.755 66.424ZM197.058 71.5C196.938 71.5 196.842 71.47 196.77 71.41C196.698 71.338 196.662 71.248 196.662 71.14C196.662 71.068 196.686 70.99 196.734 70.906L199.632 66.658L197.148 62.752C197.136 62.716 197.118 62.674 197.094 62.626C197.07 62.578 197.058 62.536 197.058 62.5C197.058 62.392 197.094 62.308 197.166 62.248C197.25 62.176 197.346 62.14 197.454 62.14H199.758C199.902 62.14 200.01 62.176 200.082 62.248C200.166 62.308 200.226 62.368 200.262 62.428L202.224 65.578H203.052V62.59C203.052 62.458 203.094 62.35 203.178 62.266C203.274 62.182 203.382 62.14 203.502 62.14H205.59C205.722 62.14 205.83 62.182 205.914 62.266C205.998 62.35 206.04 62.458 206.04 62.59V65.578H206.868L208.83 62.428C208.866 62.368 208.926 62.308 209.01 62.248C209.094 62.176 209.202 62.14 209.334 62.14H211.638C211.746 62.14 211.836 62.176 211.908 62.248C211.992 62.308 212.034 62.392 212.034 62.5C212.034 62.536 212.022 62.578 211.998 62.626C211.986 62.674 211.968 62.716 211.944 62.752L209.46 66.658L212.358 70.906C212.406 70.978 212.43 71.056 212.43 71.14C212.43 71.248 212.394 71.338 212.322 71.41C212.25 71.47 212.154 71.5 212.034 71.5H209.496C209.34 71.5 209.22 71.464 209.136 71.392C209.064 71.32 209.01 71.26 208.974 71.212L206.832 67.936H206.04V71.05C206.04 71.182 205.998 71.29 205.914 71.374C205.83 71.458 205.722 71.5 205.59 71.5H203.502C203.382 71.5 203.274 71.458 203.178 71.374C203.094 71.29 203.052 71.182 203.052 71.05V67.936H202.26L200.118 71.212C200.094 71.26 200.04 71.32 199.956 71.392C199.872 71.464 199.752 71.5 199.596 71.5H197.058ZM214.267 71.5C214.147 71.5 214.045 71.458 213.961 71.374C213.877 71.29 213.835 71.188 213.835 71.068V62.59C213.835 62.458 213.877 62.35 213.961 62.266C214.045 62.182 214.153 62.14 214.285 62.14H216.409C216.529 62.14 216.631 62.182 216.715 62.266C216.811 62.35 216.859 62.458 216.859 62.59V69.16L216.049 68.764L220.495 62.428C220.555 62.344 220.627 62.278 220.711 62.23C220.795 62.17 220.891 62.14 220.999 62.14H222.925C223.045 62.14 223.147 62.182 223.231 62.266C223.315 62.35 223.357 62.452 223.357 62.572V71.05C223.357 71.182 223.315 71.29 223.231 71.374C223.147 71.458 223.039 71.5 222.907 71.5H220.783C220.651 71.5 220.543 71.458 220.459 71.374C220.375 71.29 220.333 71.182 220.333 71.05V64.678L221.161 64.84L216.679 71.212C216.631 71.296 216.565 71.368 216.481 71.428C216.397 71.476 216.295 71.5 216.175 71.5H214.267ZM225.764 71.5C225.632 71.5 225.524 71.458 225.44 71.374C225.356 71.29 225.314 71.182 225.314 71.05V62.59C225.314 62.458 225.356 62.35 225.44 62.266C225.524 62.182 225.632 62.14 225.764 62.14H229.976C231.404 62.14 232.442 62.38 233.09 62.86C233.75 63.34 234.08 63.988 234.08 64.804C234.08 65.26 233.99 65.632 233.81 65.92C233.63 66.208 233.39 66.448 233.09 66.64C233.486 66.844 233.798 67.126 234.026 67.486C234.254 67.846 234.368 68.26 234.368 68.728C234.368 69.592 234.032 70.27 233.36 70.762C232.688 71.254 231.644 71.5 230.228 71.5H225.764ZM228.23 69.574H230.066C230.438 69.574 230.738 69.508 230.966 69.376C231.194 69.232 231.308 69.004 231.308 68.692C231.308 68.38 231.2 68.158 230.984 68.026C230.78 67.882 230.474 67.81 230.066 67.81H228.23V69.574ZM228.23 65.794H230.03C230.402 65.794 230.696 65.722 230.912 65.578C231.14 65.422 231.254 65.194 231.254 64.894C231.254 64.582 231.14 64.366 230.912 64.246C230.696 64.126 230.402 64.066 230.03 64.066H228.23V65.794ZM240.658 71.68C239.65 71.68 238.798 71.518 238.102 71.194C237.418 70.87 236.89 70.408 236.518 69.808C236.158 69.196 235.954 68.47 235.906 67.63C235.894 67.39 235.888 67.12 235.888 66.82C235.888 66.508 235.894 66.238 235.906 66.01C235.954 65.158 236.17 64.432 236.554 63.832C236.938 63.232 237.472 62.77 238.156 62.446C238.852 62.122 239.686 61.96 240.658 61.96C241.642 61.96 242.476 62.122 243.16 62.446C243.856 62.77 244.396 63.232 244.78 63.832C245.164 64.432 245.38 65.158 245.428 66.01C245.44 66.238 245.446 66.508 245.446 66.82C245.446 67.12 245.44 67.39 245.428 67.63C245.38 68.47 245.17 69.196 244.798 69.808C244.438 70.408 243.91 70.87 243.214 71.194C242.53 71.518 241.678 71.68 240.658 71.68ZM240.658 69.484C241.198 69.484 241.588 69.322 241.828 68.998C242.08 68.674 242.224 68.188 242.26 67.54C242.272 67.36 242.278 67.12 242.278 66.82C242.278 66.52 242.272 66.28 242.26 66.1C242.224 65.464 242.08 64.984 241.828 64.66C241.588 64.324 241.198 64.156 240.658 64.156C240.13 64.156 239.74 64.324 239.488 64.66C239.236 64.984 239.098 65.464 239.074 66.1C239.062 66.28 239.056 66.52 239.056 66.82C239.056 67.12 239.062 67.36 239.074 67.54C239.098 68.188 239.236 68.674 239.488 68.998C239.74 69.322 240.13 69.484 240.658 69.484ZM250.042 71.5C249.922 71.5 249.814 71.458 249.718 71.374C249.634 71.29 249.592 71.182 249.592 71.05V64.498H246.856C246.736 64.498 246.628 64.456 246.532 64.372C246.448 64.288 246.406 64.18 246.406 64.048V62.59C246.406 62.458 246.448 62.35 246.532 62.266C246.628 62.182 246.736 62.14 246.856 62.14H255.316C255.436 62.14 255.538 62.182 255.622 62.266C255.718 62.35 255.766 62.458 255.766 62.59V64.048C255.766 64.18 255.718 64.288 255.622 64.372C255.538 64.456 255.436 64.498 255.316 64.498H252.58V71.05C252.58 71.182 252.538 71.29 252.454 71.374C252.37 71.458 252.262 71.5 252.13 71.5H250.042ZM257.528 71.5C257.396 71.5 257.288 71.458 257.204 71.374C257.12 71.29 257.078 71.182 257.078 71.05V62.59C257.078 62.458 257.12 62.35 257.204 62.266C257.288 62.182 257.396 62.14 257.528 62.14H259.652C259.772 62.14 259.874 62.182 259.958 62.266C260.054 62.35 260.102 62.458 260.102 62.59V65.578H263.342V62.59C263.342 62.458 263.384 62.35 263.468 62.266C263.552 62.182 263.66 62.14 263.792 62.14H265.916C266.036 62.14 266.138 62.182 266.222 62.266C266.318 62.35 266.366 62.458 266.366 62.59V71.05C266.366 71.182 266.318 71.29 266.222 71.374C266.138 71.458 266.036 71.5 265.916 71.5H263.792C263.66 71.5 263.552 71.458 263.468 71.374C263.384 71.29 263.342 71.182 263.342 71.05V67.936H260.102V71.05C260.102 71.182 260.054 71.29 259.958 71.374C259.874 71.458 259.772 71.5 259.652 71.5H257.528ZM269.006 71.5C268.874 71.5 268.766 71.458 268.682 71.374C268.598 71.29 268.556 71.182 268.556 71.05V62.59C268.556 62.458 268.598 62.35 268.682 62.266C268.766 62.182 268.874 62.14 269.006 62.14H271.13C271.262 62.14 271.37 62.182 271.454 62.266C271.55 62.35 271.598 62.458 271.598 62.59V65.02H273.236C274.448 65.02 275.384 65.314 276.044 65.902C276.704 66.478 277.034 67.276 277.034 68.296C277.034 69.34 276.686 70.138 275.99 70.69C275.306 71.23 274.352 71.5 273.128 71.5H269.006ZM271.526 69.43H272.966C273.434 69.43 273.776 69.346 273.992 69.178C274.208 68.998 274.316 68.704 274.316 68.296C274.316 67.888 274.208 67.582 273.992 67.378C273.788 67.174 273.446 67.072 272.966 67.072H271.526V69.43ZM278.582 71.5C278.462 71.5 278.354 71.458 278.258 71.374C278.174 71.29 278.132 71.182 278.132 71.05V62.59C278.132 62.458 278.174 62.35 278.258 62.266C278.354 62.182 278.462 62.14 278.582 62.14H280.724C280.844 62.14 280.946 62.182 281.03 62.266C281.126 62.35 281.174 62.458 281.174 62.59V71.05C281.174 71.182 281.126 71.29 281.03 71.374C280.946 71.458 280.844 71.5 280.724 71.5H278.582ZM282.997 71.5C282.889 71.5 282.793 71.464 282.709 71.392C282.637 71.308 282.601 71.212 282.601 71.104C282.601 71.068 282.607 71.026 282.619 70.978C282.631 70.918 282.655 70.864 282.691 70.816L285.697 66.694L282.961 62.824C282.925 62.776 282.895 62.728 282.871 62.68C282.859 62.632 282.853 62.584 282.853 62.536C282.853 62.428 282.895 62.338 282.979 62.266C283.063 62.182 283.159 62.14 283.267 62.14H285.463C285.619 62.14 285.733 62.176 285.805 62.248C285.889 62.32 285.949 62.386 285.985 62.446L287.659 64.768L289.315 62.464C289.363 62.404 289.423 62.338 289.495 62.266C289.579 62.182 289.699 62.14 289.855 62.14H291.961C292.069 62.14 292.159 62.182 292.23 62.266C292.315 62.338 292.357 62.428 292.357 62.536C292.357 62.584 292.351 62.632 292.339 62.68C292.327 62.728 292.303 62.776 292.267 62.824L289.459 66.694L292.501 70.816C292.549 70.864 292.579 70.912 292.591 70.96C292.603 71.008 292.609 71.056 292.609 71.104C292.609 71.212 292.567 71.308 292.482 71.392C292.411 71.464 292.315 71.5 292.195 71.5H289.909C289.765 71.5 289.657 71.47 289.585 71.41C289.513 71.338 289.453 71.272 289.405 71.212L287.587 68.746L285.751 71.212C285.703 71.26 285.643 71.32 285.571 71.392C285.499 71.464 285.385 71.5 285.229 71.5H282.997Z" fill="white"/>
</svg>
